<svg width="15" height="26" viewBox="0 0 15 26" fill="none" xmlns="http://www.w3.org/2000/svg">
<g clip-path="url(#clip0_206_188)">
<path fill-rule="evenodd" clip-rule="evenodd" d="M14.5005 0.37985C14.2311 0.135972 13.8738 0 13.5023 0C13.1308 0 12.7735 0.135972 12.5041 0.37985L0.827286 11.123C0.565906 11.3599 0.357778 11.6449 0.215559 11.9608C0.0733394 12.2767 0 12.6168 0 12.9606C0 13.3044 0.0733394 13.6445 0.215559 13.9604C0.357778 14.2763 0.565906 14.5613 0.827286 14.7981L12.5887 25.6206C13.1341 26.1211 14.0177 26.1276 14.5714 25.6336C14.7054 25.516 14.8126 25.3733 14.8864 25.2144C14.9602 25.0556 14.9989 24.8839 15.0002 24.7102C15.0015 24.5365 14.9653 24.3644 14.8938 24.2046C14.8224 24.0447 14.7173 23.9006 14.585 23.7811L3.82183 13.879C3.69103 13.7606 3.58688 13.6181 3.51571 13.4601C3.44453 13.3021 3.40783 13.1319 3.40783 12.9599C3.40783 12.788 3.44453 12.6178 3.51571 12.4598C3.58688 12.3018 3.69103 12.1593 3.82183 12.0408L14.4991 2.21675C14.6299 2.09845 14.734 1.95601 14.8052 1.79811C14.8763 1.64021 14.913 1.47015 14.913 1.2983C14.913 1.12644 14.8763 0.956387 14.8052 0.798488C14.734 0.640588 14.6312 0.49815 14.5005 0.37985Z" fill="#69C6D5"/>
</g>
<defs>
<clipPath id="clip0_206_188">
<rect width="15" height="26" fill="white"/>
</clipPath>
</defs>
</svg>
