<svg width="30" height="30" viewBox="0 0 30 30" fill="none" xmlns="http://www.w3.org/2000/svg">
<path d="M27.4 14.5C24.875 8.6375 20.125 5 15 5C9.87496 5 5.12496 8.6375 2.59996 14.5C2.53113 14.6577 2.49561 14.8279 2.49561 15C2.49561 15.1721 2.53113 15.3423 2.59996 15.5C5.12496 21.3625 9.87496 25 15 25C20.125 25 24.875 21.3625 27.4 15.5C27.4688 15.3423 27.5043 15.1721 27.5043 15C27.5043 14.8279 27.4688 14.6577 27.4 14.5ZM15 22.5C11.0375 22.5 7.28746 19.6375 5.12496 15C7.28746 10.3625 11.0375 7.5 15 7.5C18.9625 7.5 22.7125 10.3625 24.875 15C22.7125 19.6375 18.9625 22.5 15 22.5ZM15 10C14.0111 10 13.0444 10.2932 12.2221 10.8427C11.3999 11.3921 10.759 12.173 10.3806 13.0866C10.0021 14.0002 9.90311 15.0055 10.096 15.9755C10.289 16.9454 10.7652 17.8363 11.4644 18.5355C12.1637 19.2348 13.0546 19.711 14.0245 19.9039C14.9944 20.0969 15.9997 19.9978 16.9134 19.6194C17.827 19.241 18.6079 18.6001 19.1573 17.7779C19.7067 16.9556 20 15.9889 20 15C20 13.6739 19.4732 12.4021 18.5355 11.4645C17.5978 10.5268 16.326 10 15 10ZM15 17.5C14.5055 17.5 14.0222 17.3534 13.611 17.0787C13.1999 16.804 12.8795 16.4135 12.6903 15.9567C12.501 15.4999 12.4515 14.9972 12.548 14.5123C12.6445 14.0273 12.8826 13.5819 13.2322 13.2322C13.5818 12.8826 14.0273 12.6445 14.5122 12.548C14.9972 12.4516 15.4999 12.5011 15.9567 12.6903C16.4135 12.8795 16.8039 13.2 17.0786 13.6111C17.3533 14.0222 17.5 14.5055 17.5 15C17.5 15.663 17.2366 16.2989 16.7677 16.7678C16.2989 17.2366 15.663 17.5 15 17.5Z" fill="black"/>
</svg>
