<svg width="30" height="30" viewBox="0 0 30 30" fill="none" xmlns="http://www.w3.org/2000/svg">
<path d="M28.2512 2.57713C28.195 2.36294 28.0828 2.16755 27.9262 2.01095C27.7696 1.85435 27.5742 1.74217 27.36 1.68588C24.796 1.02006 22.096 1.09188 19.571 1.89309C17.046 2.69429 14.7986 4.19229 13.0875 6.21463L11.6925 7.86963L8.43749 7.08463C7.64593 6.80844 6.78116 6.82806 6.00294 7.13985C5.22472 7.45165 4.58563 8.03455 4.20374 8.78088L1.45374 13.6559C1.35746 13.8266 1.30266 14.0175 1.29377 14.2133C1.28488 14.4091 1.32215 14.6042 1.40256 14.7829C1.48298 14.9616 1.6043 15.119 1.75671 15.2421C1.90913 15.3653 2.08838 15.451 2.27999 15.4921L6.12124 16.3159C5.79596 17.3063 5.5637 18.3249 5.42749 19.3584C5.40273 19.5481 5.42187 19.741 5.48341 19.9222C5.54496 20.1034 5.64728 20.268 5.78249 20.4034L9.65749 24.2784C9.77369 24.3946 9.91166 24.4868 10.0635 24.5496C10.2154 24.6125 10.3781 24.6448 10.5425 24.6446C10.5775 24.6446 10.6137 24.6434 10.65 24.6396C11.7068 24.5447 12.7509 24.3394 13.765 24.0271L14.57 27.7821C14.6111 27.9737 14.6968 28.153 14.82 28.3054C14.9432 28.4578 15.1005 28.5791 15.2792 28.6596C15.4579 28.74 15.653 28.7772 15.8488 28.7684C16.0446 28.7595 16.2355 28.7047 16.4062 28.6084L21.2875 25.8559C21.9747 25.4384 22.5114 24.8135 22.8203 24.0712C23.1293 23.3288 23.1944 22.5076 23.0062 21.7259L22.1712 18.2759L23.7175 16.8546C25.7472 15.148 27.2506 12.9003 28.053 10.3728C28.8554 7.84529 28.9249 5.14193 28.2512 2.57713ZM4.46499 13.4034L6.40999 9.95338C6.53103 9.71934 6.73696 9.54043 6.98561 9.45328C7.23427 9.36614 7.50683 9.37735 7.74749 9.48463L9.89499 10.0046L9.08249 10.9696C8.3119 11.8928 7.64538 12.898 7.09499 13.9671L4.46499 13.4034ZM20.0525 23.6809L16.6587 25.5959L16.1212 23.0896C17.2098 22.5469 18.224 21.8663 19.1387 21.0646L20.0675 20.2109L20.5725 22.2909C20.6378 22.548 20.623 22.8188 20.5301 23.0673C20.4371 23.3157 20.2705 23.5298 20.0525 23.6809ZM22.0712 14.9746L17.465 19.2071C15.6421 20.7836 13.3936 21.7856 11.0025 22.0871L7.99624 19.0821C8.39993 16.6846 9.43598 14.4382 10.9975 12.5746L13.0962 10.0834C13.1311 10.0471 13.1637 10.0087 13.1937 9.96838L14.9875 7.83713C16.3138 6.27073 18.0321 5.08438 19.9668 4.3992C21.9015 3.71402 23.9835 3.55457 26 3.93713C26.3917 5.95993 26.2338 8.05074 25.5428 9.99179C24.8518 11.9328 23.653 13.6543 22.0712 14.9746ZM20.9175 7.26963C20.5466 7.26963 20.1841 7.3796 19.8758 7.58562C19.5675 7.79165 19.3271 8.08449 19.1852 8.4271C19.0433 8.76971 19.0062 9.14671 19.0785 9.51042C19.1509 9.87414 19.3294 10.2082 19.5917 10.4705C19.8539 10.7327 20.188 10.9113 20.5517 10.9836C20.9154 11.0559 21.2924 11.0188 21.635 10.8769C21.9776 10.735 22.2705 10.4947 22.4765 10.1863C22.6825 9.87798 22.7925 9.51547 22.7925 9.14463C22.7925 8.64735 22.5949 8.17043 22.2433 7.8188C21.8917 7.46717 21.4148 7.26963 20.9175 7.26963Z" fill="black"/>
</svg>
