<svg width="30" height="30" viewBox="0 0 30 30" fill="none" xmlns="http://www.w3.org/2000/svg">
<path d="M27.4998 12.0856C27.4209 11.857 27.2773 11.6561 27.0865 11.5075C26.8957 11.3588 26.6659 11.2687 26.4248 11.2481L19.3123 10.2106L16.1248 3.74811C16.0225 3.53677 15.8627 3.35853 15.6637 3.23382C15.4647 3.10911 15.2347 3.04297 14.9998 3.04297C14.765 3.04297 14.535 3.10911 14.336 3.23382C14.137 3.35853 13.9772 3.53677 13.8748 3.74811L10.6874 10.1981L3.57485 11.2481C3.3435 11.281 3.126 11.3781 2.94704 11.5283C2.76807 11.6785 2.6348 11.8759 2.56235 12.0981C2.49603 12.3152 2.49008 12.5463 2.54513 12.7665C2.60019 12.9867 2.71417 13.1878 2.87485 13.3481L8.03735 18.3481L6.78735 25.4481C6.74272 25.6825 6.76609 25.9247 6.85469 26.1462C6.94329 26.3677 7.09342 26.5592 7.28735 26.6981C7.47637 26.8332 7.69932 26.913 7.93116 26.9285C8.163 26.9439 8.39456 26.8945 8.59985 26.7856L14.9998 23.4481L21.3748 26.7981C21.5503 26.8971 21.7484 26.9488 21.9498 26.9481C22.2146 26.949 22.4729 26.8659 22.6873 26.7106C22.8813 26.5717 23.0314 26.3802 23.12 26.1587C23.2086 25.9372 23.232 25.695 23.1873 25.4606L21.9373 18.3606L27.0998 13.3606C27.2803 13.2077 27.4137 13.0067 27.4845 12.781C27.5553 12.5553 27.5606 12.3142 27.4998 12.0856ZM19.8123 17.0856C19.6658 17.2274 19.5561 17.4029 19.4929 17.5968C19.4297 17.7907 19.4149 17.9972 19.4498 18.1981L20.3499 23.4356L15.6498 20.9356C15.469 20.8393 15.2672 20.7889 15.0623 20.7889C14.8575 20.7889 14.6557 20.8393 14.4748 20.9356L9.77485 23.4356L10.6748 18.1981C10.7098 17.9972 10.695 17.7907 10.6318 17.5968C10.5686 17.4029 10.4589 17.2274 10.3123 17.0856L6.56235 13.3356L11.8248 12.5731C12.0273 12.5449 12.2198 12.4675 12.3855 12.3477C12.5511 12.2278 12.6848 12.0692 12.7748 11.8856L14.9998 7.12311L17.3498 11.8981C17.4399 12.0817 17.5736 12.2403 17.7392 12.3602C17.9049 12.48 18.0974 12.5574 18.2998 12.5856L23.5623 13.3481L19.8123 17.0856Z" fill="black"/>
</svg>
