<svg width="26" height="28" viewBox="0 0 26 28" fill="none" xmlns="http://www.w3.org/2000/svg">
<path d="M25.4108 6.74723C25.1183 7.73773 24.724 8.5999 24.23 9.38273L24.2506 9.34773C23.7653 10.2188 23.1857 11.2253 22.5118 12.3671C21.9341 13.2685 21.6282 13.7352 21.5943 13.7671C21.4448 13.9689 21.3408 14.2162 21.305 14.4881L21.3039 14.4962C21.3332 14.7436 21.4393 14.9594 21.5943 15.1204L22.0276 15.6407C24.3459 18.2066 25.6499 19.9753 25.9395 20.9467C25.9774 21.0541 25.9991 21.1777 25.9991 21.3072C25.9991 21.5336 25.9319 21.7424 25.8182 21.9139L25.8203 21.9104C25.6297 22.1216 25.3632 22.2522 25.0685 22.2522C25.036 22.2522 25.0024 22.2511 24.971 22.2476H24.9753H22.1251C22.124 22.2476 22.1218 22.2476 22.1197 22.2476C21.7546 22.2476 21.4188 22.1099 21.1555 21.8812L21.1588 21.8836C20.7753 21.5441 20.434 21.1766 20.1285 20.7776L20.1188 20.7636C19.6197 20.1561 19.177 19.6447 18.7906 19.2294C17.5036 17.9118 16.5539 17.2531 15.9414 17.2531C15.9187 17.2507 15.8927 17.2496 15.8656 17.2496C15.6868 17.2496 15.52 17.3091 15.3824 17.4106L15.3857 17.4082C15.273 17.5599 15.2048 17.7559 15.2048 17.9671C15.2048 18.0091 15.2069 18.0487 15.2123 18.0896V18.0849C15.1831 18.4512 15.1658 18.8771 15.1658 19.3076C15.1658 19.4464 15.1679 19.5841 15.1712 19.7217V19.7019V21.0541C15.182 21.1089 15.1885 21.1719 15.1885 21.2361C15.1885 21.5184 15.0693 21.7704 14.883 21.9372L14.8819 21.9384C14.4627 22.1449 13.973 22.2662 13.4563 22.2662C13.3458 22.2662 13.2374 22.2604 13.1302 22.2499L13.1443 22.2511C11.4391 22.2161 9.85742 21.6782 8.513 20.7717L8.55092 20.7951C6.914 19.7241 5.55767 18.3299 4.52417 16.6826L4.49492 16.6336C3.51342 15.2312 2.598 13.6469 1.818 11.9762L1.74217 11.7966C1.28608 10.8609 0.813751 9.71056 0.406418 8.52756L0.341418 8.31173C0.175668 7.77973 0.055418 7.1614 0.00558464 6.5209L0.00341797 6.49173C0.00341797 5.90217 0.325529 5.6074 0.969751 5.6074H3.81892C3.84492 5.60506 3.87525 5.6039 3.90667 5.6039C4.17533 5.6039 4.42342 5.70306 4.6195 5.8699L4.61734 5.86756C4.834 6.12306 4.99434 6.4369 5.07342 6.7869L5.07667 6.8009C5.601 8.39573 6.15675 9.73506 6.79592 11.0184L6.72333 10.8586C7.2455 11.9902 7.82292 12.9644 8.48159 13.8639L8.45667 13.8277C9.03445 14.5915 9.48511 14.9734 9.80867 14.9734C9.81842 14.9746 9.83034 14.9746 9.84334 14.9746C10.0037 14.9746 10.1434 14.8812 10.2193 14.7412L10.2203 14.7389C10.3005 14.5172 10.3471 14.2594 10.3471 13.9911C10.3471 13.9339 10.3449 13.8767 10.3406 13.8207V13.8277V9.30223C10.3178 8.76906 10.1965 8.2709 9.99392 7.82406L10.0026 7.84623C9.86825 7.53823 9.70683 7.27223 9.51508 7.0354L9.51833 7.04006C9.34067 6.84873 9.21934 6.5979 9.18142 6.3179L9.18033 6.3109C9.18033 6.11256 9.26483 5.93406 9.397 5.8174L9.39808 5.81623C9.52917 5.68673 9.70467 5.60856 9.89642 5.60856H9.90508H14.3966C14.4204 5.60506 14.4475 5.6039 14.4757 5.6039C14.6869 5.6039 14.8765 5.70656 15.0022 5.86756L15.0033 5.86873C15.1148 6.08806 15.1809 6.35056 15.1809 6.62823C15.1809 6.67256 15.1788 6.71573 15.1755 6.7589V6.75306V12.7882C15.1733 12.8162 15.1723 12.8489 15.1723 12.8816C15.1723 13.0962 15.2275 13.2981 15.3228 13.4696L15.3207 13.4649C15.3998 13.5909 15.5319 13.6726 15.6814 13.6726C15.8721 13.6586 16.0465 13.5909 16.1928 13.4836L16.1895 13.4859C16.4842 13.2677 16.7377 13.0192 16.9576 12.7381L16.9619 12.7322C17.6195 11.9319 18.2262 11.0476 18.7548 10.1072L18.7971 10.0256C19.1698 9.36056 19.5728 8.54156 19.9378 7.7004L20.005 7.5289L20.4882 6.48823C20.6561 5.9679 21.1068 5.60156 21.6365 5.60156C21.6571 5.60156 21.6777 5.60156 21.6983 5.60273H21.695H24.5453C25.3151 5.60273 25.604 5.98423 25.4119 6.74723H25.4108Z" fill="white"/>
</svg>
