<svg width="27" height="28" viewBox="0 0 27 28" fill="none" xmlns="http://www.w3.org/2000/svg">
<g clip-path="url(#clip0_190_139)">
<path d="M13.5014 0.875C6.51282 0.875 0.847656 6.75081 0.847656 13.9982C0.847656 16.3809 1.47428 18.719 2.65818 20.7611L1.98053 25.5225C1.80514 26.6882 2.70601 27.2612 3.5455 27.0983L8.67652 26.1285C10.2067 26.7833 11.846 27.1204 13.5014 27.1206C20.49 27.1206 26.1559 21.2456 26.1559 13.9982C26.1559 6.75081 20.4892 0.875 13.5014 0.875ZM9.29996 6.94344C9.52557 6.95419 9.74641 7.04183 9.94731 7.24356C10.0007 7.2973 10.0525 7.35931 10.1028 7.43041L11.2907 10.2637C11.5314 10.7333 11.3106 11.1798 11.0547 11.5386L9.91622 13.1309C10.4009 13.9098 11.1511 14.8308 12.2418 15.8526C13.334 16.8745 14.2938 17.5541 15.0903 17.9749L16.5014 16.6389C16.8195 16.338 17.2261 16.0651 17.7004 16.266L20.5394 17.2028C20.6119 17.2474 20.6773 17.2945 20.7339 17.3441C21.5901 18.0899 20.7315 19.3556 20.2588 19.8988C19.2383 21.0695 17.5904 21.6516 15.8899 21.3085C14.1886 20.9645 12.4044 19.8798 10.3834 17.9874C8.36241 16.0949 7.14024 14.3645 6.63719 12.6448C6.13493 10.9251 6.52557 9.16413 7.54524 7.99426C7.90001 7.58667 8.62151 6.91451 9.29916 6.94427L9.29996 6.94344Z" fill="white"/>
</g>
<defs>
<clipPath id="clip0_190_139">
<rect width="27" height="28" fill="white"/>
</clipPath>
</defs>
</svg>
