<svg width="30" height="24" viewBox="0 0 30 24" fill="none" xmlns="http://www.w3.org/2000/svg">
<path d="M26.7412 0.546875L29.1318 2.65625C27.6006 4 26.3506 5.29688 25.3818 6.54688C24.4443 7.76562 23.8506 8.6875 23.6006 9.3125C23.3506 9.9375 23.1162 10.6875 22.8974 11.5625L23.0849 11.8438C25.1787 11.8438 26.7099 12.2969 27.6787 13.2031C28.6474 14.1094 29.1318 15.5156 29.1318 17.4219C29.1318 18.8906 28.6006 20.2188 27.5381 21.4062C26.5068 22.5938 25.2099 23.1875 23.6474 23.1875C21.8662 23.1875 20.3818 22.6875 19.1943 21.6875C18.0068 20.6875 17.4131 19.0781 17.4131 16.8594C17.4131 13.9219 18.3193 10.8906 20.1318 7.76562C21.9756 4.60938 24.1787 2.20312 26.7412 0.546875ZM9.35056 0.546875L11.7412 2.65625C10.2099 4 8.97556 5.28125 8.03806 6.5C7.10056 7.71875 6.49119 8.65625 6.20994 9.3125C5.95994 9.96875 5.72556 10.7188 5.50681 11.5625L5.69431 11.8438C7.78806 11.8438 9.31931 12.2969 10.2881 13.2031C11.2568 14.1094 11.7412 15.5156 11.7412 17.4219C11.7412 18.8906 11.2099 20.2188 10.1474 21.4062C9.11619 22.5938 7.81931 23.1875 6.25681 23.1875C4.47556 23.1875 2.99119 22.6875 1.80369 21.6875C0.616188 20.6875 0.022438 19.0781 0.022438 16.8594C0.022438 13.9219 0.928688 10.8906 2.74119 7.76562C4.58494 4.60938 6.78806 2.20312 9.35056 0.546875Z" fill="#00B7D5"/>
</svg>
